<?xml version="1.0" standalone="no"?>
<!DOCTYPE svg PUBLIC "-//W3C//DTD SVG 20010904//EN"
 "http://www.w3.org/TR/2001/REC-SVG-20010904/DTD/svg10.dtd">
<svg version="1.0" xmlns="http://www.w3.org/2000/svg"
 width="816.000000pt" height="816.000000pt" viewBox="0 0 816.000000 816.000000"
 preserveAspectRatio="xMidYMid meet">
<metadata>
Created by potrace 1.11, written by Peter Selinger 2001-2013
</metadata>
<g transform="translate(0.000000,816.000000) scale(0.100000,-0.100000)"
fill="#000000" stroke="none">
<path d="M3935 8121 c-111 -19 -528 -209 -1265 -578 -796 -398 -1466 -761
-1629 -882 -36 -27 -162 -184 -188 -235 -125 -241 -713 -2944 -713 -3279 0
-55 38 -234 60 -285 110 -247 1430 -2017 1876 -2514 113 -126 151 -155 287
-218 79 -37 101 -43 220 -55 282 -30 623 -39 1487 -39 863 0 1211 9 1495 39
128 13 131 14 253 75 81 40 139 77 166 103 324 327 1750 2216 1946 2578 23 44
56 168 69 259 10 76 0 169 -60 515 -152 878 -555 2644 -642 2812 -28 53 -133
187 -178 227 -125 110 -761 457 -1659 907 -614 307 -990 482 -1195 556 -47 17
-257 26 -330 14z m390 -238 c569 -238 2103 -1020 2559 -1304 116 -72 128 -83
203 -187 37 -51 53 -88 85 -195 169 -571 538 -2278 628 -2906 20 -138 20 -149
5 -225 -9 -44 -22 -96 -29 -115 -66 -189 -1398 -1976 -1847 -2477 -93 -103
-107 -115 -195 -159 l-96 -48 -161 -13 c-557 -45 -2242 -45 -2805 0 l-162 12
-103 51 c-100 50 -104 54 -210 176 -460 531 -1465 1868 -1786 2375 -78 123
-93 239 -61 462 79 561 439 2226 605 2804 46 162 60 199 99 255 74 109 127
149 406 308 568 325 1949 1018 2350 1181 47 19 101 41 120 48 25 10 69 13 155
10 118 -3 122 -4 240 -53z"/>
<path d="M3975 7581 c-399 -148 -2263 -1098 -2558 -1304 -70 -49 -92 -88 -137
-241 -130 -447 -451 -1914 -565 -2581 -45 -262 -48 -333 -16 -399 122 -251
1506 -2090 1786 -2372 83 -85 93 -88 335 -104 404 -28 2091 -28 2503 0 246 16
247 17 347 118 293 298 1664 2121 1779 2367 21 44 23 59 17 130 -27 354 -475
2447 -620 2900 -33 102 -54 136 -112 178 -230 167 -1874 1012 -2449 1259 -163
70 -226 80 -310 49z m307 -261 c614 -273 2178 -1080 2349 -1213 22 -17 57
-131 129 -416 208 -833 520 -2343 520 -2520 0 -22 -31 -76 -113 -198 -346
-516 -1384 -1880 -1617 -2125 l-55 -58 -135 -10 c-511 -38 -2233 -34 -2653 6
l-67 7 -84 96 c-365 422 -1407 1804 -1642 2178 -64 102 -63 66 -9 388 109 639
440 2141 561 2544 22 75 34 97 58 116 186 140 1821 979 2417 1240 80 35 113
45 141 41 21 -2 111 -37 200 -76z"/>
<path d="M2210 3975 l0 -2295 60 0 60 0 0 -66 c0 -59 3 -68 29 -95 l29 -29
1254 0 c1355 0 1389 1 1652 55 495 100 872 350 1050 695 85 165 124 323 133
540 18 425 -141 756 -467 973 -42 29 -112 76 -155 106 -43 30 -116 72 -163 93
l-84 40 82 44 c110 59 161 97 246 186 85 89 123 142 174 250 134 282 142 659
19 953 -70 170 -202 325 -374 441 -49 33 -119 81 -155 106 -144 101 -349 184
-571 232 -282 61 -232 59 -1581 63 l-1238 4 0 -2296z m2395 1375 c165 -18 326
-70 393 -126 47 -39 66 -240 37 -379 -43 -203 -178 -330 -409 -385 -130 -31
-296 -39 -793 -40 l-453 0 0 460 c0 427 1 460 18 469 23 14 1085 14 1207 1z
m223 -1856 c180 -26 329 -83 414 -157 52 -44 72 -122 71 -277 -1 -203 -49
-336 -163 -450 -70 -70 -145 -115 -253 -150 -158 -51 -178 -53 -869 -57 l-648
-4 0 543 c0 410 3 547 12 556 9 9 172 12 671 12 546 0 677 -3 765 -16z"/>
</g>
</svg>
